<svg width="96" height="16" viewBox="0 0 96 16" fill="none" xmlns="http://www.w3.org/2000/svg">
<path d="M8 0.392029L10.472 5.40003L16 6.20803L12 10.104L12.944 15.608L8 13.008L3.056 15.608L4 10.104L0 6.20803L5.528 5.40003L8 0.392029Z" fill="#FFB629"/>
<path d="M28 0.392029L30.472 5.40003L36 6.20803L32 10.104L32.944 15.608L28 13.008L23.056 15.608L24 10.104L20 6.20803L25.528 5.40003L28 0.392029Z" fill="#FFB629"/>
<path d="M48 0.392029L50.472 5.40003L56 6.20803L52 10.104L52.944 15.608L48 13.008L43.056 15.608L44 10.104L40 6.20803L45.528 5.40003L48 0.392029Z" fill="#FFB629"/>
<path d="M68 0.392029L70.472 5.40003L76 6.20803L72 10.104L72.944 15.608L68 13.008L63.056 15.608L64 10.104L60 6.20803L65.528 5.40003L68 0.392029Z" fill="#FFB629"/>
<path d="M88 0.392029L90.472 5.40003L96 6.20803L92 10.104L92.944 15.608L88 13.008L83.056 15.608L84 10.104L80 6.20803L85.528 5.40003L88 0.392029Z" fill="#FFB629"/>
</svg>
